<svg width="173" height="38" viewBox="0 0 173 38" fill="none" xmlns="http://www.w3.org/2000/svg">
<path d="M24.7588 37H0.24707V1.99023H7.25391V29.9932H24.7588V37ZM37.4297 30.6035C37.6901 30.6849 37.9505 30.7419 38.2109 30.7744C38.4714 30.7907 38.7318 30.7988 38.9922 30.7988C39.6432 30.7988 40.2699 30.7093 40.8721 30.5303C41.4743 30.3512 42.0358 30.099 42.5566 29.7734C43.0938 29.4316 43.5658 29.0247 43.9727 28.5527C44.3958 28.0645 44.7376 27.5273 44.998 26.9414L49.8809 31.8486C49.2624 32.7275 48.5462 33.5169 47.7324 34.2168C46.9349 34.9167 46.0641 35.5107 45.1201 35.999C44.1924 36.4873 43.2077 36.8535 42.166 37.0977C41.1406 37.3581 40.0827 37.4883 38.9922 37.4883C37.153 37.4883 35.4196 37.1465 33.792 36.4629C32.1807 35.7793 30.7646 34.8271 29.5439 33.6064C28.3395 32.3857 27.3874 30.9372 26.6875 29.2607C25.9876 27.568 25.6377 25.7126 25.6377 23.6943C25.6377 21.6273 25.9876 19.7393 26.6875 18.0303C27.3874 16.3213 28.3395 14.8646 29.5439 13.6602C30.7646 12.4557 32.1807 11.5199 33.792 10.8525C35.4196 10.1852 37.153 9.85156 38.9922 9.85156C40.0827 9.85156 41.1488 9.98177 42.1904 10.2422C43.2321 10.5026 44.2168 10.877 45.1445 11.3652C46.0885 11.8535 46.9674 12.4557 47.7812 13.1719C48.5951 13.8717 49.3112 14.6611 49.9297 15.54L37.4297 30.6035ZM40.8477 16.8584C40.5384 16.7445 40.2292 16.6712 39.9199 16.6387C39.627 16.6061 39.3177 16.5898 38.9922 16.5898C38.0807 16.5898 37.2181 16.7607 36.4043 17.1025C35.6068 17.4281 34.9069 17.9001 34.3047 18.5186C33.7188 19.137 33.2549 19.8857 32.9131 20.7646C32.5713 21.6273 32.4004 22.6038 32.4004 23.6943C32.4004 23.9385 32.4085 24.2152 32.4248 24.5244C32.4574 24.8337 32.498 25.151 32.5469 25.4766C32.612 25.7858 32.6852 26.0869 32.7666 26.3799C32.848 26.6729 32.9538 26.9333 33.084 27.1611L40.8477 16.8584ZM66.4092 37C64.7979 37 63.2842 36.6989 61.8682 36.0967C60.4521 35.4782 59.207 34.64 58.1328 33.582C57.0749 32.5078 56.2367 31.2627 55.6182 29.8467C55.016 28.4307 54.7148 26.917 54.7148 25.3057V17.542H51.4678V10.9014H54.7148V0.452148H61.3555V10.9014H71.4629V17.542H61.3555V25.3057C61.3555 26.0055 61.4857 26.6647 61.7461 27.2832C62.0065 27.8854 62.3646 28.4144 62.8203 28.8701C63.276 29.3258 63.8132 29.6921 64.4316 29.9688C65.0501 30.2292 65.7093 30.3594 66.4092 30.3594H71.4629V37H66.4092ZM88.333 37C86.7217 37 85.208 36.6989 83.792 36.0967C82.376 35.4782 81.1309 34.64 80.0566 33.582C78.9987 32.5078 78.1605 31.2627 77.542 29.8467C76.9398 28.4307 76.6387 26.917 76.6387 25.3057V17.542H73.3916V10.9014H76.6387V0.452148H83.2793V10.9014H93.3867V17.542H83.2793V25.3057C83.2793 26.0055 83.4095 26.6647 83.6699 27.2832C83.9303 27.8854 84.2884 28.4144 84.7441 28.8701C85.1999 29.3258 85.737 29.6921 86.3555 29.9688C86.974 30.2292 87.6331 30.3594 88.333 30.3594H93.3867V37H88.333ZM107.547 30.6035C107.807 30.6849 108.068 30.7419 108.328 30.7744C108.589 30.7907 108.849 30.7988 109.109 30.7988C109.76 30.7988 110.387 30.7093 110.989 30.5303C111.591 30.3512 112.153 30.099 112.674 29.7734C113.211 29.4316 113.683 29.0247 114.09 28.5527C114.513 28.0645 114.855 27.5273 115.115 26.9414L119.998 31.8486C119.38 32.7275 118.663 33.5169 117.85 34.2168C117.052 34.9167 116.181 35.5107 115.237 35.999C114.31 36.4873 113.325 36.8535 112.283 37.0977C111.258 37.3581 110.2 37.4883 109.109 37.4883C107.27 37.4883 105.537 37.1465 103.909 36.4629C102.298 35.7793 100.882 34.8271 99.6611 33.6064C98.4567 32.3857 97.5046 30.9372 96.8047 29.2607C96.1048 27.568 95.7549 25.7126 95.7549 23.6943C95.7549 21.6273 96.1048 19.7393 96.8047 18.0303C97.5046 16.3213 98.4567 14.8646 99.6611 13.6602C100.882 12.4557 102.298 11.5199 103.909 10.8525C105.537 10.1852 107.27 9.85156 109.109 9.85156C110.2 9.85156 111.266 9.98177 112.308 10.2422C113.349 10.5026 114.334 10.877 115.262 11.3652C116.206 11.8535 117.085 12.4557 117.898 13.1719C118.712 13.8717 119.428 14.6611 120.047 15.54L107.547 30.6035ZM110.965 16.8584C110.656 16.7445 110.346 16.6712 110.037 16.6387C109.744 16.6061 109.435 16.5898 109.109 16.5898C108.198 16.5898 107.335 16.7607 106.521 17.1025C105.724 17.4281 105.024 17.9001 104.422 18.5186C103.836 19.137 103.372 19.8857 103.03 20.7646C102.688 21.6273 102.518 22.6038 102.518 23.6943C102.518 23.9385 102.526 24.2152 102.542 24.5244C102.575 24.8337 102.615 25.151 102.664 25.4766C102.729 25.7858 102.802 26.0869 102.884 26.3799C102.965 26.6729 103.071 26.9333 103.201 27.1611L110.965 16.8584ZM130.081 37H123.416V10.8525H125.027L127.225 13.9531C128.299 12.9766 129.52 12.2279 130.887 11.707C132.254 11.1699 133.67 10.9014 135.135 10.9014H141.019V17.542H135.135C134.435 17.542 133.776 17.6722 133.157 17.9326C132.539 18.193 132.002 18.5511 131.546 19.0068C131.09 19.4626 130.732 19.9997 130.472 20.6182C130.211 21.2367 130.081 21.8958 130.081 22.5957V37ZM172.439 23.0107C172.439 24.9476 172.073 26.7705 171.341 28.4795C170.608 30.1722 169.607 31.6533 168.338 32.9229C167.068 34.1761 165.579 35.1689 163.87 35.9014C162.177 36.6338 160.363 37 158.426 37C156.489 37 154.666 36.6338 152.957 35.9014C151.264 35.1689 149.783 34.1761 148.514 32.9229C147.26 31.6533 146.268 30.1722 145.535 28.4795C144.803 26.7705 144.437 24.9476 144.437 23.0107V1.99023H151.419V23.0107C151.419 23.971 151.598 24.8743 151.956 25.7207C152.33 26.5671 152.835 27.3076 153.47 27.9424C154.104 28.5771 154.845 29.0817 155.691 29.4561C156.554 29.8141 157.465 29.9932 158.426 29.9932C159.386 29.9932 160.289 29.8141 161.136 29.4561C161.998 29.0817 162.747 28.5771 163.382 27.9424C164.017 27.3076 164.513 26.5671 164.871 25.7207C165.245 24.8743 165.433 23.971 165.433 23.0107V1.99023H172.439V23.0107Z" fill="#343434"/>
</svg>
