<svg width="393" height="163" viewBox="0 0 393 163" fill="none" xmlns="http://www.w3.org/2000/svg">
<g filter="url(#filter0_f_140_3181)">
<rect x="120.783" y="15.8945" width="161.462" height="132.105" rx="29.3567" fill="#FFD700"/>
</g>
<path d="M-26 59.1523L65.174 102.873C73.4508 107.475 97.2983 106.325 106.105 77.9448M112.711 34.9765C115.646 10.7574 121.373 1.71801 137.513 4.47932C153.652 7.24062 192.43 16.1988 209.888 17.3495C251.79 21.766 271.237 24.6363 284.768 27.1899C290.804 29.9257 294.255 35.3972 282.44 41.1274C271.011 46.67 228.123 66.8229 208.725 77.9448C198.317 83.912 186.067 91.9814 180.79 86.7656C174.195 80.2459 173.469 75.75 164.495 59.1526C158.308 47.7082 146.649 34.4798 139.277 24.6363C136.044 20.929 129.423 16.966 128.802 30.7725C128.026 48.0306 125.31 68.3569 124.146 71.4251C123.215 73.8796 119.62 95.7143 117.939 106.325C117.551 112.205 118.714 123.276 126.474 120.515C136.173 117.063 145.873 110.16 153.244 103.64C159.141 98.4245 163.464 92.5176 166.567 88.5547C167.731 86.8929 172.779 81.7319 171.399 77.6383C167.963 67.4499 147.932 81.0497 132.682 106.325C129.836 111.041 126.862 125.117 132.682 127.035C138.501 128.952 162.556 126.268 180.79 130.103C199.025 133.938 201.353 133.171 218.036 137.773C234.719 142.375 251.014 146.594 251.79 145.06C252.566 143.526 253.73 143.526 249.462 140.074C246.048 137.313 230.73 124.894 220.888 111.919C208.725 95.8834 212.27 88.119 215.222 86.7657C223.316 83.0546 233.205 98.0283 249.462 122.26C258.124 135.171 260.552 140.074 264.593 145.06C266.647 149.618 273.671 148.895 272.74 142.759C271.809 136.623 272.352 126.523 272.74 120.515M277.108 83.4151C280.044 66.535 305.938 42.353 329.216 51.2505C352.495 60.148 394.694 83.5697 414.351 96.737" stroke="black" stroke-width="7.33918" stroke-linecap="round" stroke-linejoin="round"/>
<circle cx="109.041" cy="58.4621" r="4.40351" fill="black"/>
<path d="M-26 59.1523L65.174 102.873M112.711 34.9765C115.646 10.7574 121.373 1.71801 137.513 4.47932C153.652 7.24062 192.43 16.1988 209.888 17.3495C251.79 21.766 271.237 24.6363 284.768 27.1899C290.804 29.9257 294.255 35.3972 282.44 41.1274C271.011 46.67 228.123 66.8229 208.725 77.9448C198.317 83.912 186.067 91.9814 180.79 86.7656C174.195 80.2459 173.469 75.75 164.495 59.1526C158.308 47.7082 146.649 34.4798 139.277 24.6363C136.044 20.929 129.423 16.966 128.802 30.7725C128.026 48.0306 125.31 68.3569 124.146 71.4251C123.215 73.8796 119.62 95.7143 117.939 106.325C117.551 112.205 118.714 123.276 126.474 120.515C136.173 117.063 145.873 110.16 153.244 103.64C159.141 98.4245 163.464 92.5176 166.567 88.5547C167.731 86.8929 172.779 81.7319 171.399 77.6383C167.963 67.4499 147.932 81.0497 132.682 106.325C129.836 111.041 126.862 125.117 132.682 127.035C138.501 128.952 162.556 126.268 180.79 130.103C199.025 133.938 201.353 133.171 218.036 137.773C234.719 142.375 251.014 146.594 251.79 145.06C252.566 143.526 253.73 143.526 249.462 140.074C246.048 137.313 230.73 124.894 220.888 111.919C208.725 95.8834 212.27 88.119 215.222 86.7657C223.316 83.0546 233.205 98.0283 249.462 122.26C258.124 135.171 260.552 140.074 264.593 145.06C266.647 149.618 273.671 148.895 272.74 142.759C271.809 136.623 272.352 126.523 272.74 120.515M329.216 51.2505C352.495 60.148 394.694 83.5697 414.351 96.737" stroke="black" stroke-width="7.33918" stroke-linecap="round" stroke-linejoin="round"/>
<circle cx="273.439" cy="102.497" r="4.40351" fill="black"/>
<defs>
<filter id="filter0_f_140_3181" x="106.105" y="1.21616" width="190.819" height="161.462" filterUnits="userSpaceOnUse" color-interpolation-filters="sRGB">
<feFlood flood-opacity="0" result="BackgroundImageFix"/>
<feBlend mode="normal" in="SourceGraphic" in2="BackgroundImageFix" result="shape"/>
<feGaussianBlur stdDeviation="7.33918" result="effect1_foregroundBlur_140_3181"/>
</filter>
</defs>
</svg>
