<svg width="46" height="46" viewBox="0 0 46 46" fill="none" xmlns="http://www.w3.org/2000/svg">
<circle cx="23.2281" cy="22.7721" r="22.7721" fill="black"/>
<path d="M23.1368 14.6895C24.2891 14.6895 25.7336 13.9093 26.5938 12.869C27.3728 11.9262 27.9409 10.6096 27.9409 9.29296C27.9409 9.11416 27.9247 8.93535 27.8922 8.78906C26.61 8.83783 25.0682 9.65056 24.1431 10.7396C23.4127 11.5686 22.7473 12.869 22.7473 14.2019C22.7473 14.3969 22.7797 14.592 22.796 14.657C22.8771 14.6733 23.0069 14.6895 23.1368 14.6895ZM19.0793 34.3577C20.6536 34.3577 21.3515 33.3011 23.3153 33.3011C25.3116 33.3011 25.7498 34.3252 27.5027 34.3252C29.2231 34.3252 30.3754 32.7322 31.4628 31.1718C32.6801 29.3838 33.1832 27.6282 33.2157 27.547C33.1021 27.5145 29.8074 26.1653 29.8074 22.378C29.8074 19.0945 32.4042 17.6154 32.5502 17.5016C30.8298 15.0309 28.2168 14.9658 27.5027 14.9658C25.5713 14.9658 23.997 16.1362 23.0069 16.1362C21.9358 16.1362 20.5237 15.0309 18.852 15.0309C15.6709 15.0309 12.4412 17.6641 12.4412 22.6381C12.4412 25.7264 13.6422 28.9936 15.1191 31.1068C16.3851 32.8948 17.4887 34.3577 19.0793 34.3577Z" fill="white"/>
</svg>
