<svg width="46" height="46" viewBox="0 0 46 46" fill="none" xmlns="http://www.w3.org/2000/svg">
<path d="M45.5441 22.7729C45.5441 34.2742 37.0187 43.7825 25.9434 45.3255C24.9078 45.4691 23.8483 45.5441 22.7729 45.5441C21.5315 45.5441 20.3124 45.4452 19.1252 45.2537C8.28133 43.5081 0 34.1066 0 22.7729C0 10.1961 10.1961 0 22.7713 0C35.3464 0 45.5441 10.1961 45.5441 22.7729Z" fill="#1877F2"/>
<path d="M25.9433 18.2842V23.245H32.0801L31.1084 29.9275H25.9433V45.3237C24.9077 45.4674 23.8482 45.5423 22.7728 45.5423C21.5314 45.5423 20.3123 45.4434 19.1252 45.2519V29.9275H13.4655V23.245H19.1252V17.1752C19.1252 13.4095 22.1776 10.3555 25.9449 10.3555V10.3587C25.9561 10.3587 25.9656 10.3555 25.9768 10.3555H32.0817V16.1348H28.0926C26.9071 16.1348 25.9449 17.097 25.9449 18.2826L25.9433 18.2842Z" fill="white"/>
</svg>
