<svg width="35" height="34" viewBox="0 0 35 34" fill="none" xmlns="http://www.w3.org/2000/svg">
<circle cx="17.2646" cy="17" r="16.75" fill="white" stroke="black" stroke-width="0.5"/>
<path d="M17.5098 14.8184V19.4656H24.0997C23.8104 20.9601 22.942 22.2256 21.6396 23.0765L25.6136 26.0983C27.929 24.0039 29.2648 20.9275 29.2648 17.273C29.2648 16.4221 29.1869 15.6039 29.0421 14.8185L17.5098 14.8184Z" fill="#4285F4"/>
<path d="M10.647 19.2842L9.75072 19.9566L6.57812 22.3783C8.59296 26.2946 12.7225 29.0001 17.5091 29.0001C20.8152 29.0001 23.5869 27.931 25.613 26.0983L21.639 23.0765C20.548 23.7965 19.1566 24.2329 17.5091 24.2329C14.3255 24.2329 11.6205 22.1275 10.652 19.2911L10.647 19.2842Z" fill="#34A853"/>
<path d="M6.5781 11.6221C5.74326 13.2365 5.26465 15.0584 5.26465 17.0001C5.26465 18.9419 5.74326 20.7637 6.5781 22.3782C6.5781 22.389 10.6524 19.28 10.6524 19.28C10.4075 18.5601 10.2627 17.7965 10.2627 17C10.2627 16.2035 10.4075 15.44 10.6524 14.72L6.5781 11.6221Z" fill="#FBBC05"/>
<path d="M17.5094 9.77814C19.3127 9.77814 20.9157 10.389 22.1958 11.5672L25.7023 8.13092C23.5761 6.18915 20.8156 5 17.5094 5C12.7228 5 8.59296 7.69452 6.57812 11.6218L10.6523 14.7199C11.6207 11.8836 14.3257 9.77814 17.5094 9.77814Z" fill="#EA4335"/>
</svg>
