<svg width="24" height="24" viewBox="0 0 24 24" fill="none" xmlns="http://www.w3.org/2000/svg">
<path d="M12.2451 9.81812V14.4654H18.8351C18.5457 15.9599 17.6773 17.2254 16.3749 18.0763L20.3489 21.0981C22.6643 19.0036 24.0002 15.9273 24.0002 12.2728C24.0002 11.4219 23.9223 10.6036 23.7775 9.81825L12.2451 9.81812Z" fill="#4285F4"/>
<path d="M5.38236 14.2839L4.48607 14.9563L1.31348 17.3781C3.32831 21.2944 7.45788 23.9998 12.2445 23.9998C15.5505 23.9998 18.3223 22.9307 20.3483 21.0981L16.3743 18.0763C15.2834 18.7962 13.8919 19.2327 12.2445 19.2327C9.06083 19.2327 6.3559 17.1272 5.38737 14.2909L5.38236 14.2839Z" fill="#34A853"/>
<path d="M1.31345 6.62207C0.478614 8.23654 0 10.0584 0 12.0001C0 13.9419 0.478614 15.7637 1.31345 17.3782C1.31345 17.389 5.38773 14.28 5.38773 14.28C5.14283 13.5601 4.99808 12.7965 4.99808 12C4.99808 11.2035 5.14283 10.44 5.38773 9.71997L1.31345 6.62207Z" fill="#FBBC05"/>
<path d="M12.2446 4.77814C14.048 4.77814 15.6509 5.38902 16.9311 6.56721L20.4375 3.13092C18.3114 1.18915 15.5508 0 12.2446 0C7.45801 0 3.32819 2.69452 1.31335 6.62177L5.38751 9.71993C6.35591 6.88356 9.06096 4.77814 12.2446 4.77814Z" fill="#EA4335"/>
</svg>
