<svg width="56" height="48" viewBox="0 0 56 48" fill="none" xmlns="http://www.w3.org/2000/svg">
<g clip-path="url(#clip0_141_3255)">
<rect width="56" height="48" rx="8.4" fill="white"/>
<g filter="url(#filter0_f_141_3255)">
<rect x="13.1602" y="16.8" width="30.8" height="25.2" rx="5.6" fill="#FFD700"/>
</g>
<path d="M-14.8398 25.0517L2.55223 33.3917C4.13108 34.2696 8.68016 34.0502 10.3602 28.6365M11.6202 20.44C12.1802 15.82 13.2726 14.0957 16.3513 14.6224C19.4301 15.1492 26.8271 16.858 30.1575 17.0775C38.1505 17.92 41.8602 18.4675 44.4412 18.9546C45.5928 19.4765 46.2511 20.5202 43.9972 21.6133C41.817 22.6706 33.6359 26.5149 29.9355 28.6365C27.9501 29.7748 25.6134 31.3141 24.6069 30.3191C23.3487 29.0754 23.2103 28.2178 21.4985 25.0517C20.3181 22.8687 18.0941 20.3452 16.6879 18.4675C16.0712 17.7603 14.8081 17.0044 14.6897 19.638C14.5417 22.9302 14.0236 26.8075 13.8016 27.3928C13.6239 27.861 12.9381 32.0262 12.6174 34.0502C12.5434 35.1719 12.7654 37.2838 14.2456 36.757C16.0958 36.0986 17.9461 34.7818 19.3522 33.5381C20.4772 32.5431 21.3016 31.4164 21.8937 30.6604C22.1157 30.3434 23.0787 29.3589 22.8153 28.578C22.16 26.6345 18.3388 29.2288 15.4298 34.0502C14.887 34.9498 14.3196 37.6349 15.4298 38.0007C16.5399 38.3665 21.1284 37.8544 24.6069 38.586C28.0853 39.3176 28.5293 39.1713 31.7117 40.0492C34.8941 40.927 38.0024 41.7318 38.1505 41.4392C38.2985 41.1465 38.5205 41.1465 37.7064 40.4881C37.0551 39.9614 34.1331 37.5924 32.2557 35.1174C29.9355 32.0584 30.6117 30.5773 31.1749 30.3191C32.719 29.6112 34.6053 32.4676 37.7064 37.09C39.3587 39.5528 39.8219 40.4881 40.5928 41.4392C40.9846 42.3087 42.3246 42.1707 42.1469 41.0002C41.9693 39.8297 42.0729 37.9032 42.1469 36.757M42.9802 29.68C43.5402 26.46 48.4796 21.8471 52.9202 23.5444C57.3607 25.2416 65.4104 29.7095 69.1602 32.2212" stroke="black" stroke-width="1.4" stroke-linecap="round" stroke-linejoin="round"/>
<circle cx="10.9201" cy="24.9201" r="0.84" fill="black"/>
<path d="M-14.8398 25.0517L2.55223 33.3917M11.6202 20.44C12.1802 15.82 13.2726 14.0957 16.3513 14.6224C19.4301 15.1492 26.8271 16.858 30.1575 17.0775C38.1505 17.92 41.8602 18.4675 44.4412 18.9546C45.5928 19.4765 46.2511 20.5202 43.9972 21.6133C41.817 22.6706 33.6359 26.5149 29.9355 28.6365C27.9501 29.7748 25.6134 31.3141 24.6069 30.3191C23.3487 29.0754 23.2103 28.2178 21.4985 25.0517C20.3181 22.8687 18.0941 20.3452 16.6879 18.4675C16.0712 17.7603 14.8081 17.0044 14.6897 19.638C14.5417 22.9302 14.0236 26.8075 13.8016 27.3928C13.6239 27.861 12.9381 32.0262 12.6174 34.0502C12.5434 35.1719 12.7654 37.2838 14.2456 36.757C16.0958 36.0986 17.9461 34.7818 19.3522 33.5381C20.4772 32.5431 21.3016 31.4164 21.8937 30.6604C22.1157 30.3434 23.0787 29.3589 22.8153 28.578C22.16 26.6345 18.3388 29.2288 15.4298 34.0502C14.887 34.9498 14.3196 37.6349 15.4298 38.0007C16.5399 38.3665 21.1284 37.8544 24.6069 38.586C28.0853 39.3176 28.5293 39.1713 31.7117 40.0492C34.8941 40.927 38.0024 41.7318 38.1505 41.4392C38.2985 41.1465 38.5205 41.1465 37.7064 40.4881C37.0551 39.9614 34.1331 37.5924 32.2557 35.1174C29.9355 32.0584 30.6117 30.5773 31.1749 30.3191C32.719 29.6112 34.6053 32.4676 37.7064 37.09C39.3587 39.5528 39.8219 40.4881 40.5928 41.4392C40.9846 42.3087 42.3246 42.1707 42.1469 41.0002C41.9693 39.8297 42.0729 37.9032 42.1469 36.757M52.9202 23.5444C57.3607 25.2416 65.4104 29.7095 69.1602 32.2212" stroke="black" stroke-width="1.4" stroke-linecap="round" stroke-linejoin="round"/>
<circle cx="42.2799" cy="33.32" r="0.84" fill="black"/>
</g>
<defs>
<filter id="filter0_f_141_3255" x="10.3602" y="14" width="36.4" height="30.8" filterUnits="userSpaceOnUse" color-interpolation-filters="sRGB">
<feFlood flood-opacity="0" result="BackgroundImageFix"/>
<feBlend mode="normal" in="SourceGraphic" in2="BackgroundImageFix" result="shape"/>
<feGaussianBlur stdDeviation="1.4" result="effect1_foregroundBlur_141_3255"/>
</filter>
<clipPath id="clip0_141_3255">
<rect width="56" height="48" rx="8.4" fill="white"/>
</clipPath>
</defs>
</svg>
