<svg width="77" height="70" viewBox="0 0 77 70" fill="none" xmlns="http://www.w3.org/2000/svg">
<g clip-path="url(#clip0_492_11059)">
<rect y="3" width="76" height="67" rx="9.38" fill="white"/>
<g filter="url(#filter0_f_492_11059)">
<rect x="26.2666" y="22.5332" width="34.3933" height="28.14" rx="6.25333" fill="#FFD700"/>
</g>
<path d="M8 35.7511L14.4211 41.0611C16.1842 42.0414 21.264 41.7964 23.14 35.7511M24.547 26.5984C25.1723 21.4394 26.3922 19.5139 29.8301 20.1021C33.2681 20.6903 41.5281 22.5985 45.247 22.8436C54.1725 23.7844 58.315 24.3958 61.1972 24.9397C62.4831 25.5225 63.2182 26.688 60.7013 27.9086C58.2669 29.0892 49.1313 33.382 44.9991 35.7511C42.7821 37.0222 40.1728 38.7411 39.0488 37.6301C37.6439 36.2413 37.4893 35.2836 35.5778 31.7482C34.2597 29.3104 31.7762 26.4926 30.206 24.3958C29.5173 23.6061 28.1069 22.7619 27.9746 25.7029C27.8093 29.3791 27.2308 33.7088 26.9829 34.3623C26.7846 34.8852 26.0187 39.5362 25.6606 41.7964C25.578 43.049 25.8259 45.4073 27.4788 44.8191C29.5448 44.0838 31.6109 42.6134 33.1811 41.2246C34.4373 40.1135 35.358 38.8553 36.0191 38.0111C36.2671 37.6572 37.3423 36.5578 37.0483 35.6858C36.3164 33.5156 32.0495 36.4125 28.8011 41.7964C28.1949 42.801 27.5614 45.7994 28.8011 46.2078C30.0407 46.6163 35.1646 46.0445 39.0488 46.8614C42.933 47.6783 43.4289 47.5149 46.9826 48.4953C50.5362 49.4756 54.0072 50.3742 54.1725 50.0474C54.3378 49.7207 54.5857 49.7207 53.6767 48.9854C52.9494 48.3972 49.6864 45.7519 47.5901 42.9881C44.9991 39.5722 45.7543 37.9183 46.3831 37.6301C48.1074 36.8396 50.2138 40.0291 53.6767 45.1909C55.5217 47.941 56.039 48.9854 56.8997 50.0474C57.3373 51.0184 58.8336 50.8644 58.6352 49.5573C58.4369 48.2502 58.5526 46.0989 58.6352 44.8191M59.5657 36.9164C60.191 33.3207 65.7067 28.1696 70.6653 30.0649C75.6239 31.9602 84.6127 36.9493 88.8 39.7541" stroke="black" stroke-width="1.56333" stroke-linecap="round" stroke-linejoin="round"/>
<circle cx="23.7651" cy="31.6011" r="0.938" fill="black"/>
<circle cx="58.7847" cy="40.981" r="0.938" fill="black"/>
</g>
<circle cx="42" cy="35" r="34.5" stroke="#FFD700"/>
<defs>
<filter id="filter0_f_492_11059" x="23.1399" y="19.4065" width="40.6469" height="34.3935" filterUnits="userSpaceOnUse" color-interpolation-filters="sRGB">
<feFlood flood-opacity="0" result="BackgroundImageFix"/>
<feBlend mode="normal" in="SourceGraphic" in2="BackgroundImageFix" result="shape"/>
<feGaussianBlur stdDeviation="1.56333" result="effect1_foregroundBlur_492_11059"/>
</filter>
<clipPath id="clip0_492_11059">
<rect y="3" width="76" height="67" rx="9.38" fill="white"/>
</clipPath>
</defs>
</svg>
