<svg width="393" height="112" viewBox="0 0 393 112" fill="none" xmlns="http://www.w3.org/2000/svg">
<g filter="url(#filter0_f_140_3106)">
<rect x="49" y="11.1035" width="110" height="90" rx="20" fill="#FFD700"/>
</g>
<path d="M-51 40.5739L11.1145 70.3597C16.7533 73.495 33 72.7114 39 53.3767M43.5 24.1035C45.5 7.60364 49.4015 1.44534 60.3971 3.32655C71.3927 5.20776 97.8106 11.3108 109.705 12.0947C138.251 15.1035 151.5 17.059 160.718 18.7987C164.831 20.6625 167.182 24.3901 159.132 28.2939C151.346 32.07 122.128 45.7996 108.912 53.3767C101.821 57.442 93.4758 62.9395 89.8811 59.3861C85.3877 54.9444 84.8934 51.8814 78.7797 40.5741C74.5642 32.7773 66.6211 23.7651 61.5991 17.059C59.3965 14.5333 54.8855 11.8334 54.4626 21.2394C53.9339 32.997 52.0837 46.8448 51.2907 48.935C50.6564 50.6072 48.2071 65.4827 47.0617 72.7114C46.7974 76.7176 47.5903 84.2599 52.8766 82.3787C59.4846 80.0272 66.0925 75.3242 71.1145 70.8824C75.1322 67.329 78.0767 63.3048 80.1912 60.6049C80.9842 59.4728 84.4232 55.9568 83.4828 53.1679C81.1421 46.2268 67.4953 55.492 57.1057 72.7114C55.1672 75.9243 53.141 85.514 57.1057 86.8204C61.0705 88.1268 77.4581 86.2979 89.8811 88.9107C102.304 91.5234 103.89 91.0009 115.256 94.1362C126.621 97.2716 137.722 100.146 138.251 99.1005C138.78 98.0554 139.573 98.0554 136.665 95.7039C134.339 93.8227 123.903 85.3621 117.199 76.5227C108.912 65.5978 111.327 60.3082 113.338 59.3861C118.853 56.8579 125.59 67.0591 136.665 83.5678C142.566 92.3637 144.221 95.7039 146.974 99.1005C148.373 102.206 153.159 101.713 152.524 97.5329C151.89 93.3524 152.26 86.4721 152.524 82.3787M155.5 57.1035C157.5 45.6035 175.141 29.1289 191 35.1906C206.859 41.2522 262.5 76.5227 285 82.3787C303.167 85.8624 345 88.4404 367 70.8824C389 53.3245 397.5 39.772 399 35.1906" stroke="black" stroke-width="5" stroke-linecap="round" stroke-linejoin="round"/>
<path d="M-51 40.5739L11.1145 70.3597M43.5 24.1035C45.5 7.60364 49.4015 1.44534 60.3971 3.32655C71.3927 5.20776 97.8106 11.3108 109.705 12.0947C138.251 15.1035 151.5 17.059 160.718 18.7987C164.831 20.6625 167.182 24.3901 159.132 28.2939C151.346 32.07 122.128 45.7996 108.912 53.3767C101.821 57.442 93.4758 62.9395 89.8811 59.3861C85.3877 54.9444 84.8934 51.8814 78.7797 40.5741C74.5642 32.7773 66.6211 23.7651 61.5991 17.059C59.3965 14.5333 54.8855 11.8334 54.4626 21.2394C53.9339 32.997 52.0837 46.8448 51.2907 48.935C50.6564 50.6072 48.2071 65.4827 47.0617 72.7114C46.7974 76.7176 47.5903 84.2599 52.8766 82.3787C59.4846 80.0272 66.0925 75.3242 71.1145 70.8824C75.1322 67.329 78.0767 63.3048 80.1912 60.6049C80.9842 59.4728 84.4232 55.9568 83.4828 53.1679C81.1421 46.2268 67.4953 55.492 57.1057 72.7114C55.1672 75.9243 53.141 85.514 57.1057 86.8204C61.0705 88.1268 77.4581 86.2979 89.8811 88.9107C102.304 91.5234 103.89 91.0009 115.256 94.1362C126.621 97.2716 137.722 100.146 138.251 99.1005C138.78 98.0554 139.573 98.0554 136.665 95.7039C134.339 93.8227 123.903 85.3621 117.199 76.5227C108.912 65.5978 111.327 60.3082 113.338 59.3861C118.853 56.8579 125.59 67.0591 136.665 83.5678C142.566 92.3637 144.221 95.7039 146.974 99.1005C148.373 102.206 153.159 101.713 152.524 97.5329C151.89 93.3524 152.26 86.4721 152.524 82.3787" stroke="black" stroke-width="5" stroke-linecap="round" stroke-linejoin="round"/>
<circle cx="153" cy="70.1035" r="3" fill="black"/>
<defs>
<filter id="filter0_f_140_3106" x="39" y="1.10352" width="130" height="110" filterUnits="userSpaceOnUse" color-interpolation-filters="sRGB">
<feFlood flood-opacity="0" result="BackgroundImageFix"/>
<feBlend mode="normal" in="SourceGraphic" in2="BackgroundImageFix" result="shape"/>
<feGaussianBlur stdDeviation="5" result="effect1_foregroundBlur_140_3106"/>
</filter>
</defs>
</svg>
